<svg xmlns="http://www.w3.org/2000/svg" viewBox="0 0 500 500"><g id="freepik--Floor--inject-76"><ellipse id="freepik--floor--inject-76" cx="250" cy="344.38" rx="241.39" ry="135.67" style="fill:#f5f5f5"></ellipse></g><g id="freepik--Shadows--inject-76"><path id="freepik--Shadow--inject-76" d="M461.9,339.92c-16,14.7-38.81,29.76-61.34,41.15a9.6,9.6,0,0,1-6.34.48c-31.55-10.39-57.06-25.7-77.86-44.82a2.75,2.75,0,0,1,.24-4.39c22.07-16.12,47.82-27.16,77.51-32.75a16.67,16.67,0,0,1,6.67.37Q440.73,312.14,462.1,335A3.49,3.49,0,0,1,461.9,339.92Z" style="fill:#e0e0e0"></path><ellipse id="freepik--shadow--inject-76" cx="246" cy="372.78" rx="118.43" ry="68.38" style="fill:#e0e0e0"></ellipse><path id="freepik--shadow--inject-76" d="M38.21,339.92c16,14.7,38.81,29.76,61.34,41.15a9.6,9.6,0,0,0,6.34.48c31.54-10.39,57.05-25.7,77.86-44.82a2.75,2.75,0,0,0-.25-4.39c-22.07-16.12-47.81-27.16-77.51-32.75a16.62,16.62,0,0,0-6.66.37Q59.37,312.14,38,335A3.48,3.48,0,0,0,38.21,339.92Z" style="fill:#e0e0e0"></path></g><g id="freepik--character-2--inject-76"><g id="freepik--Chair--inject-76"><polygon points="391.63 219.95 396.75 220.1 401.01 163.14 395.88 163 391.63 219.95" style="fill:#455a64"></polygon><polygon points="435.43 244 440.56 244.15 444.81 187.19 439.69 187.04 435.43 244" style="fill:#455a64"></polygon><path d="M433.7,248.88h8.49L454.52,337h0a1,1,0,0,1-.61.93,3.37,3.37,0,0,1-3,0,1.2,1.2,0,0,1-.6-.73h0Z" style="fill:#455a64"></path><path d="M382.79,219.49h8.49l12.33,88.12h0a1,1,0,0,1-.61.93,3.31,3.31,0,0,1-3,0,1.12,1.12,0,0,1-.6-.73h0Z" style="fill:#455a64"></path><path d="M317.23,335.43l14.65-86.55h8.49l-18.88,86.75h0a1.12,1.12,0,0,1-.6.73,3.35,3.35,0,0,1-3,0,1,1,0,0,1-.62-.93Z" style="fill:#455a64"></path><path d="M372.38,367.27l12.34-88.12h8.48l-16.55,88.33h0a1.15,1.15,0,0,1-.61.72,3.29,3.29,0,0,1-3,0,1,1,0,0,1-.62-.93Z" style="fill:#455a64"></path><path d="M331.88,248.88h8.49l-3.45,15.86q-2.9-2.4-5.64-4.92a5.5,5.5,0,0,1-1-1.35Z" style="fill:#37474f"></path><path d="M442.19,248.88l1.47,10.53a6.65,6.65,0,0,1-1.64,2.86c-1.58,1.45-3.25,2.91-5,4.36l-3.33-17.75Z" style="fill:#37474f"></path><path d="M383,291.3l1.7-12.15h8.48l-2.77,14.79Q386.65,292.68,383,291.3Z" style="fill:#37474f"></path><path d="M390.43,221.76a7.6,7.6,0,0,1,1.15-.13l9.64,68.9c-1.55.83-3.1,1.65-4.65,2.44l-13.08-69.74C385.78,222.7,388.09,222.2,390.43,221.76Z" style="fill:#37474f"></path><path d="M390.52,287.27c-24-7.95-43.42-19.61-59.25-34.15a6.84,6.84,0,0,1-1.9-4.4v-4.57a5.76,5.76,0,0,1,2.09-4.17c16.79-12.27,36.38-20.67,59-24.93a12.75,12.75,0,0,1,5.07.28q30.39,9.28,46.66,26.71a7.67,7.67,0,0,1,1.75,4.56v4.57a6.84,6.84,0,0,1-1.9,4.4c-12.16,11.19-29.53,22.68-46.68,31.34A7.26,7.26,0,0,1,390.52,287.27Z" style="fill:#9333EA"></path><path d="M329.37,244.15v4.57a6.8,6.8,0,0,0,1.91,4.4c15.82,14.55,35.24,26.2,59.24,34.15a6.65,6.65,0,0,0,2.68.21V215a11.24,11.24,0,0,0-2.77.11c-22.59,4.25-42.18,12.66-59,24.92A5.77,5.77,0,0,0,329.37,244.15Z" style="opacity:0.4"></path><path d="M393.2,215v72.53a6.11,6.11,0,0,0,2.14-.57c17.14-8.66,34.52-20.15,46.68-31.34a6.82,6.82,0,0,0,1.9-4.39v-4.59a7.59,7.59,0,0,0-1.75-4.54q-16.26-17.45-46.66-26.72A10.6,10.6,0,0,0,393.2,215Z" style="opacity:0.5"></path><path d="M442,245.74c-12.16,11.19-29.53,22.65-46.68,31.31a7.27,7.27,0,0,1-4.82.37c-24-7.91-43.42-19.56-59.25-34.11a2.09,2.09,0,0,1,.19-3.34c16.79-12.26,36.38-20.66,59-24.92a12.75,12.75,0,0,1,5.07.28Q425.9,224.6,442.17,242A2.65,2.65,0,0,1,442,245.74Z" style="fill:#9333EA"></path><path d="M442,245.74c-12.16,11.19-29.53,22.65-46.68,31.31a7.27,7.27,0,0,1-4.82.37c-24-7.91-43.42-19.56-59.25-34.11a2.09,2.09,0,0,1,.19-3.34c16.79-12.26,36.38-20.66,59-24.92a12.75,12.75,0,0,1,5.07.28Q425.9,224.6,442.17,242A2.65,2.65,0,0,1,442,245.74Z" style="opacity:0.30000000000000004"></path><path d="M454.85,177.78Q430.48,146.43,391.14,141a8.65,8.65,0,0,0-4.71.9,4.85,4.85,0,0,0-2.12,3.83V165a3.06,3.06,0,0,0,2.59,2.94q39.33,5.44,63.71,36.78a3,3,0,0,0,3.7.86,4.87,4.87,0,0,0,2.12-3.84V182.47A8.87,8.87,0,0,0,454.85,177.78Z" style="fill:#9333EA"></path><path d="M437.57,190.75,456,180.1a7.94,7.94,0,0,1,.43,2.37v19.27a4.87,4.87,0,0,1-2.12,3.84,3,3,0,0,1-3.7-.86A103.71,103.71,0,0,0,437.57,190.75Z" style="opacity:0.5"></path><path d="M437.57,190.75Q416.45,172,386.9,167.94a3.06,3.06,0,0,1-2.59-2.94V145.72a4.85,4.85,0,0,1,2.12-3.83,8.65,8.65,0,0,1,4.71-.9q39.33,5.44,63.71,36.79A7.74,7.74,0,0,1,456,180.1Z" style="opacity:0.30000000000000004"></path><path d="M450.61,204.72q-24.37-31.33-63.71-36.78a3.06,3.06,0,0,1-2.59-2.94V145.72a2.23,2.23,0,0,1,2.59-2.28q39.33,5.44,63.71,36.79a8.84,8.84,0,0,1,1.58,4.69v19.27C452.19,205.63,451.5,205.86,450.61,204.72Z" style="fill:#9333EA"></path><path d="M450.61,204.72q-24.37-31.33-63.71-36.78a3.06,3.06,0,0,1-2.59-2.94V145.72a2.23,2.23,0,0,1,2.59-2.28q39.33,5.44,63.71,36.79a8.84,8.84,0,0,1,1.58,4.69v19.27C452.19,205.63,451.5,205.86,450.61,204.72Z" style="opacity:0.4"></path></g><g id="freepik--Character--inject-76"><path d="M377.65,115.88c-9.68-1.68-18.5,5.07-30.79,17.85-6.68,7-17.44,18-17.44,18s-12.93-25.52-13.37-29.14c-.51-4.34,1.15-6,1.44-10.71s-.22-7.78.73-9.81-3-2.15-4.3.4-1.2,6-2.34,5.43-2.55-7.71-2.12-13-2.62-6.42-3.55-4.66a15.25,15.25,0,0,0-1.22,3s-4.29-1-6.72,2.2-4.45,7.92-3.74,15.7,5.18,13.27,6.55,16.55c2,4.9,8.06,32.63,16.73,46.55,4,6.36,9.37,4.46,14.78,1.31,9.51-5.54,31.13-25.21,31.13-25.21C372.87,143.48,384.39,122.46,377.65,115.88Z" style="fill:#b16668"></path><path d="M329.42,151.73A32.11,32.11,0,0,1,332.59,163a21,21,0,0,0-1.4-13.09Z" style="fill:#9a4a4d"></path><path d="M379.67,115.38c-5.6-.2-11.28-.35-18.29,4.61s-24.16,23.43-24.16,23.43a38.91,38.91,0,0,0,5.43,11.29,22.7,22.7,0,0,0,8.7,7.44l24.34-20.39Z" style="fill:#9333EA"></path><path d="M351.1,330.8s-1.46,16.89-4,22.41a83.26,83.26,0,0,1-10.29,17.6c-1,1.29-3.32,3.72-4.15,4.77a1.94,1.94,0,0,0,.36,3c2.3,2,11.59,2,16.58-2.18s9-10.79,11.91-14.08c1.46-1.65,2.84-3.22,3.85-4.38a4.23,4.23,0,0,0,.84-4.06c-.13-.4-.28-.86-.44-1.41-1.46-4.95,1-19.28,1-19.28C361.94,327.22,356.67,329.5,351.1,330.8Z" style="fill:#b16668"></path><path d="M367,358.72a5.39,5.39,0,0,1-.13,2.72c-.47,1.26-3.85,3.67-5.59,4.64s-3.06,2.41-4.51,5.18c-2,3.81-5.05,7.94-9,10A29.48,29.48,0,0,1,330.4,384c-7.35-.94-8.15-5.2-8.15-5.2s-.59-4,1.19-4.74S367,358.72,367,358.72Z" style="fill:#263238"></path><path d="M367.72,353.7a11.87,11.87,0,0,1-.74,5c-2,3.08-7,4.31-9.74,8.52s-5.88,10.63-15.32,13-16.82-.29-18.72-2.92-.42-5.26,5.52-8.87c6.31-3.82,13.54-13.56,13.55-13.57,2.37-3.33,3.27-7.63,4.51-11.48.12-.37.32-.81.71-.84s.71.54,1,.93a3,3,0,0,0,1.87,1.06,22.59,22.59,0,0,0,2.55.63,23.41,23.41,0,0,0,5.22.37,2.17,2.17,0,0,1,1.65.37,1.94,1.94,0,0,1,.38,1.44,15.4,15.4,0,0,1-.18,1.92,2,2,0,0,0,0,.95,1.15,1.15,0,0,0,1.11.67,2.42,2.42,0,0,0,1.3-.47,5.79,5.79,0,0,0,2.94-4s0-1,.08-1.87a2.43,2.43,0,0,1,1.24,1.34c.21.72.18,1.51.32,2.25A40.1,40.1,0,0,1,367.72,353.7Z" style="fill:#37474f"></path><path d="M367,358.72a5.39,5.39,0,0,1-.13,2.72c-.47,1.26-3.85,3.67-5.59,4.64s-3.06,2.41-4.51,5.18c-2,3.81-5.05,7.94-9,10A29.48,29.48,0,0,1,330.4,384c-7.35-.94-8.15-5.2-8.15-5.2s-.59-4,1.19-4.74S367,358.72,367,358.72Z" style="fill:#263238"></path><path d="M367.72,353.7a11.87,11.87,0,0,1-.74,5c-2,3.08-7,4.31-9.74,8.52s-5.88,10.63-15.32,13-16.82-.29-18.72-2.92-.42-5.26,5.52-8.87c6.31-3.82,13.54-13.56,13.55-13.57,2.37-3.33,3.27-7.63,4.51-11.48.12-.37.32-.81.71-.84s.71.54,1,.93a3,3,0,0,0,1.87,1.06,22.59,22.59,0,0,0,2.55.63,23.41,23.41,0,0,0,5.22.37,2.17,2.17,0,0,1,1.65.37,1.94,1.94,0,0,1,.38,1.44,15.4,15.4,0,0,1-.18,1.92,2,2,0,0,0,0,.95,1.15,1.15,0,0,0,1.11.67,2.42,2.42,0,0,0,1.3-.47,5.79,5.79,0,0,0,2.94-4s0-1,.08-1.87a2.43,2.43,0,0,1,1.24,1.34c.21.72.18,1.51.32,2.25A40.1,40.1,0,0,1,367.72,353.7Z" style="fill:#37474f"></path><path d="M363.83,349.29a8.84,8.84,0,0,1-1.45,1.15,2.42,2.42,0,0,1-1.3.47,1.15,1.15,0,0,1-1.11-.67,2,2,0,0,1,0-.95c-.94,4.23-5.12,10.26-4.69,10.62s7.19-8.34,8.55-10.62Z" style="fill:#263238"></path><path d="M310.58,308.7s-1.84,17.46-4.12,23.08a83.84,83.84,0,0,1-9.5,18.05c-.95,1.33-3.15,3.86-3.93,4.94a1.94,1.94,0,0,0,.49,3c2.38,1.88,11.67,1.47,16.47-2.91s8.48-11.18,11.26-14.6c1.39-1.71,2.7-3.35,3.66-4.55a4.2,4.2,0,0,0,.65-4.09c-.15-.39-.31-.85-.5-1.39-1.67-4.88,2.7-18.4,2.7-18.4C322.71,306.06,316.08,307.14,310.58,308.7Z" style="fill:#b16668"></path><path d="M326.57,337.56a5.43,5.43,0,0,1-.13,2.73c-.47,1.25-3.85,3.66-5.59,4.63s-3.06,2.41-4.51,5.18c-2,3.81-5,7.94-9,10A29.46,29.46,0,0,1,290,362.8c-7.35-.94-8.15-5.21-8.15-5.21s-.59-4,1.19-4.74S326.57,337.56,326.57,337.56Z" style="fill:#263238"></path><path d="M327.31,332.54a11.87,11.87,0,0,1-.74,5c-2,3.08-7,4.31-9.74,8.52s-5.88,10.64-15.32,13-16.82-.29-18.72-2.91-.42-5.27,5.52-8.87c6.31-3.83,13.54-13.57,13.55-13.58,2.37-3.33,3.27-7.63,4.51-11.47.12-.38.32-.82.71-.85s.71.54,1,.93a3,3,0,0,0,1.87,1.06,22.59,22.59,0,0,0,2.55.63,22.83,22.83,0,0,0,5.22.37,2.17,2.17,0,0,1,1.65.37,1.94,1.94,0,0,1,.38,1.44,15.72,15.72,0,0,1-.17,1.93,1.87,1.87,0,0,0,0,.94,1.18,1.18,0,0,0,1.11.68,2.6,2.6,0,0,0,1.3-.47,5.67,5.67,0,0,0,2.81-4.05,16.86,16.86,0,0,1,.21-1.85,2.41,2.41,0,0,1,1.24,1.33c.21.72.18,1.51.32,2.25A40.1,40.1,0,0,1,327.31,332.54Z" style="fill:#37474f"></path><path d="M319.74,334.27a27.76,27.76,0,0,0,3.64-6.13h0a7.35,7.35,0,0,1-1.4,1.15,2.6,2.6,0,0,1-1.3.47,1.18,1.18,0,0,1-1.11-.68,1.87,1.87,0,0,1,0-.94,34.41,34.41,0,0,1-5,10.16C313,340.29,317,338,319.74,334.27Z" style="fill:#263238"></path><path d="M433.22,207.64,410.77,206l-41.53-5.31s-47.5,25.64-53.47,38.86c-3.46,7.64-5.36,65.41-6,74,3.15,2.51,13.32,2.81,17.16,2.15,2.4-6.86,3.84-9.92,7.16-20,2.71-8.25,4-11.39,5.53-17.22,2.49-9.77,1.79-21.48,1.79-21.48s18.3-9,29.4-13.2c-6.12,6.7-14.89,18.78-16.07,21.45-3.4,7.67-4.64,62.65-4.64,70.28,2.51,3.26,14.15,4,17.18,1.92,3.55-12.47,6.18-18.49,9-28.75,4.56-16.34,3.08-23,2.41-29,0,0,11.83-7.52,27.16-19,6.47-4.84,14.44-11.52,18.87-16.62C432.87,234.83,434.08,218.29,433.22,207.64Z" style="fill:#37474f"></path><path d="M370.85,243.83l12.64-14.1s-12.86-5.64-15.25-17.84c0,0-2.08,10.27,7.75,18.63l-8.57,12-26,14.53C353.12,253.33,360.48,247.64,370.85,243.83Z" style="fill:#263238"></path><path d="M401.84,115.74A83.77,83.77,0,0,1,417.63,118c6.57,2.25,10.52,4,13.71,13,4.76,13.57,3.29,32.28,3.29,45.1,0,17-.4,36.74-.4,36.74C419.84,225,373,219.4,365.11,202.36c0,0,4.79-21.32-.25-60-2.07-15.86,3.75-26.67,18.84-27.54C383.7,114.87,395.77,115.48,401.84,115.74Z" style="fill:#455a64"></path><circle cx="374.81" cy="71.83" r="14.38" style="fill:#263238"></circle><path d="M411.65,84.76s-2.95,14.41-4.13,16.78a6.32,6.32,0,0,1-3.63,3l.21-10.15Z" style="fill:#263238"></path><path d="M408,64.1s2.11-.53,4.35,3c1.93,3,2.37,9.76-.65,17.68l-5.55.66Z" style="fill:#263238"></path><path d="M410,67l6.81.12a3.21,3.21,0,0,0-3.11-3.59A3.76,3.76,0,0,0,410,67Z" style="fill:#263238"></path><path d="M410.82,65.4l5.05-4.85a3.26,3.26,0,0,0-4.78-.18A3.71,3.71,0,0,0,410.82,65.4Z" style="fill:#263238"></path><path d="M404.43,85.42c1.11.7,2.7-1.53,4.07-3s5.69-2.91,7.92,2-1.61,9.68-4.77,11.34c-2.81,1.48-6-1.79-6-1.79l-.1,24.35c-7.79,11.94-30.48,11.39-21.64-1.61v-7s-5.5.87-8.19.43c-4.47-.72-6.78-4.21-7.85-8a84.18,84.18,0,0,1-2.78-18.36,75.06,75.06,0,0,1,.44-11.24c2.35-15.88,21.91-20,32.43-13.1S404.43,85.42,404.43,85.42Z" style="fill:#b16668"></path><path d="M380.4,70.37A36.23,36.23,0,0,0,391.91,67a1.54,1.54,0,0,1,1.13-.22,1.49,1.49,0,0,1,.72,1,37.31,37.31,0,0,0,2.06,5.42,8.11,8.11,0,0,0,4.08,3.94,3.27,3.27,0,0,1,1.76,1,3.17,3.17,0,0,1,.52,1.89,14.88,14.88,0,0,1-.41,2.55c-.22,1.16-.61,3.17.05,4.22a1.87,1.87,0,0,0,2.78.48,10.88,10.88,0,0,0,2.17-2.63,16.61,16.61,0,0,1,2.31-2.66c.81-.71.49-2.3.67-3.33.35-2.07.54-4.17.7-6.26.14-1.77.32-3.58.31-5.36a24.41,24.41,0,0,0-.47-6,10.42,10.42,0,0,0-2.49-4.48l-.35-.39c-3.35-3.61-7.7-5-12.53-5.51-3.75-.42-7.54-.32-11.31-.51a71,71,0,0,1-12.13-1.68,3.2,3.2,0,0,0-1.68-.07,2.11,2.11,0,0,0-1.21,2.29,6.37,6.37,0,0,0,1.16,2.54,13.44,13.44,0,0,0-3.81-1.26A4.6,4.6,0,0,0,362.18,53,5.51,5.51,0,0,0,361,57.56a14.8,14.8,0,0,0,9.43,11.77A21.4,21.4,0,0,0,380.4,70.37Z" style="fill:#263238"></path><path d="M383.87,109.73s10-2.1,13.47-4a11.75,11.75,0,0,0,4.83-5,16.85,16.85,0,0,1-2.74,5.86c-2.56,3.4-15.56,5.9-15.56,5.9Z" style="fill:#9a4a4d"></path><path d="M384.33,83.49a2,2,0,1,0,2-2.17A2.11,2.11,0,0,0,384.33,83.49Z" style="fill:#263238"></path><path d="M385.53,76.93l4.28,2.45a2.72,2.72,0,0,0-1-3.54A2.35,2.35,0,0,0,385.53,76.93Z" style="fill:#263238"></path><path d="M386.19,96.64l-6,2.36a3.14,3.14,0,0,0,4.1,2.08A3.56,3.56,0,0,0,386.19,96.64Z" style="fill:#9a4a4d"></path><path d="M366.82,79.94l3.9-3.13a2.3,2.3,0,0,0-3.39-.54A2.76,2.76,0,0,0,366.82,79.94Z" style="fill:#263238"></path><path d="M368.07,84.08a2,2,0,1,0,2-2.17A2.11,2.11,0,0,0,368.07,84.08Z" style="fill:#263238"></path><polygon points="377.94 81.57 378.35 94.47 371.14 92.98 377.94 81.57" style="fill:#9a4a4d"></polygon><g id="freepik--man-arm--inject-76"><path d="M319.2,215.24a7.76,7.76,0,0,1-3.12-.35c-1.39-.47-2.63-1.92-3.79-4.44-1-2.12-2.58-6.79-1.61-9.24,1.24-3.12,5-3.33,7.45-3.46l.85-.06.22,2.94c-.3,0-.76.13-1.08.15-1.39.07-4.45.64-4.77,1.44-1.1,1.94,2,9.2,3.35,10a11.37,11.37,0,0,0,4.79-.15l1,2.44A11.17,11.17,0,0,1,319.2,215.24Z" style="fill:#9333EA"></path><g style="opacity:0.5"><path d="M319.2,215.24a7.76,7.76,0,0,1-3.12-.35c-1.39-.47-2.63-1.92-3.79-4.44-1-2.12-2.58-6.79-1.61-9.24,1.24-3.12,5-3.33,7.45-3.46l.85-.06.22,2.94c-.3,0-.76.13-1.08.15-1.39.07-4.45.64-4.77,1.44-1.1,1.94,2,9.2,3.35,10a11.37,11.37,0,0,0,4.79-.15l1,2.44A11.17,11.17,0,0,1,319.2,215.24Z"></path></g><path d="M344.65,193.48c-.32-1.25-1.59-2.45-3.82-3.37-5.14-2.14-13.42-2-18.49.3-2.19,1-3.42,2.23-3.7,3.49h-.07c-.74,8.27.89,17.82,3.91,23.06l.06.11,0,.08h0a6.5,6.5,0,0,0,2.45,2.24,15.52,15.52,0,0,0,14-.23,6.26,6.26,0,0,0,2.37-2.31h0l0-.08a.75.75,0,0,0,.07-.12c2.85-5.34,4.17-14.93,3.17-23.17Z" style="fill:#9333EA"></path><path d="M344.65,193.48c-.32-1.25-1.59-2.45-3.82-3.37-5.14-2.14-13.42-2-18.49.3-2.19,1-3.42,2.23-3.7,3.49h-.07c-.74,8.27.89,17.82,3.91,23.06l.06.11,0,.08h0a6.5,6.5,0,0,0,2.45,2.24,15.52,15.52,0,0,0,14-.23,6.26,6.26,0,0,0,2.37-2.31h0l0-.08a.75.75,0,0,0,.07-.12c2.85-5.34,4.17-14.93,3.17-23.17Z" style="opacity:0.4"></path><g style="opacity:0.30000000000000004"><path d="M340.83,190.11c5.15,2.14,5.2,5.73.13,8s-13.35,2.43-18.49.3-5.2-5.74-.13-8S335.69,188,340.83,190.11Z" style="fill:#9333EA"></path></g><g style="opacity:0.4"><path d="M339.07,191.53c4.14,1.38,4.18,3.73.08,5.25a26.19,26.19,0,0,1-14.91.24c-4.14-1.39-4.18-3.74-.09-5.25A26.13,26.13,0,0,1,339.07,191.53Z"></path></g><path d="M339.12,194.7a7.75,7.75,0,0,1,2.08,1,7.89,7.89,0,0,1-2.05,1.07,26.19,26.19,0,0,1-14.91.24,7.83,7.83,0,0,1-2.09-1,7.91,7.91,0,0,1,2.05-1.07A26.13,26.13,0,0,1,339.12,194.7Z" style="fill:#263238"></path><path d="M419.42,118.43c-8.66,1-12.27,16-13.08,23.91-.89,8.67-7.38,46.55-7.38,46.55S357.73,203.48,352.65,203c-4-.36-4.76-3.44-7.6-4.14a61.38,61.38,0,0,1-.39,6.64c-.68,5.32-13.86,4.61-20.69,2.65s-5.66.69-5.24,5.43,6,11.09,13.51,12.3c12,2,22.33-3.72,28.47-6.21s32.62-5.94,46-9c8.71-2,12-3.62,15.84-14.92s7.1-27.49,8.83-41.08S437.12,121.22,419.42,118.43Z" style="fill:#b16668"></path><path d="M416.81,117.82c6,.14,11.85,2.17,14.5,7.36s2.69,11.57.88,26.69-3.59,24.93-3.59,24.93-11.94,4.09-27.32-5.89l4.65-34.2S408.27,121,416.81,117.82Z" style="fill:#9333EA"></path></g></g></g><g id="freepik--character-1--inject-76"><g id="freepik--chair--inject-76"><polygon points="112.65 219.95 107.53 220.1 103.27 163.14 108.4 163 112.65 219.95" style="fill:#455a64"></polygon><polygon points="68.85 244 63.72 244.15 59.47 187.19 64.59 187.04 68.85 244" style="fill:#455a64"></polygon><path d="M70.58,248.88H62.09L49.76,337h0a1,1,0,0,0,.61.93,3.37,3.37,0,0,0,3,0,1.16,1.16,0,0,0,.6-.73h0Z" style="fill:#455a64"></path><path d="M121.49,219.49H113l-12.33,88.12h0a1,1,0,0,0,.61.93,3.31,3.31,0,0,0,3,0,1.12,1.12,0,0,0,.6-.73h0Z" style="fill:#455a64"></path><path d="M187.05,335.43,172.4,248.88h-8.49l18.88,86.75h0a1.12,1.12,0,0,0,.6.73,3.37,3.37,0,0,0,3,0,1,1,0,0,0,.61-.93Z" style="fill:#455a64"></path><path d="M131.9,367.27l-12.34-88.12h-8.48l16.56,88.33h0a1.15,1.15,0,0,0,.61.72,3.29,3.29,0,0,0,3,0,1,1,0,0,0,.62-.93Z" style="fill:#455a64"></path><path d="M172.4,248.88h-8.49l3.46,15.86c1.92-1.6,3.81-3.24,5.63-4.92a5.5,5.5,0,0,0,1-1.35Z" style="fill:#37474f"></path><path d="M62.09,248.88l-1.47,10.53a6.65,6.65,0,0,0,1.64,2.86c1.58,1.45,3.25,2.91,5,4.36l3.33-17.75Z" style="fill:#37474f"></path><path d="M121.26,291.3l-1.7-12.15h-8.48l2.77,14.79C116.38,293.1,118.84,292.22,121.26,291.3Z" style="fill:#37474f"></path><path d="M113.85,221.76a7.6,7.6,0,0,0-1.15-.13l-9.64,68.9c1.55.83,3.1,1.65,4.65,2.44l13.08-69.74C118.5,222.7,116.2,222.2,113.85,221.76Z" style="fill:#37474f"></path><path d="M113.76,287.27c24-7.95,43.42-19.61,59.25-34.15a6.85,6.85,0,0,0,1.91-4.4v-4.57a5.77,5.77,0,0,0-2.1-4.17c-16.79-12.27-36.38-20.67-59-24.93a12.79,12.79,0,0,0-5.08.28Q78.38,224.62,62.11,242a7.74,7.74,0,0,0-1.75,4.56v4.57a6.8,6.8,0,0,0,1.91,4.4c12.15,11.19,29.52,22.68,46.67,31.34A7.27,7.27,0,0,0,113.76,287.27Z" style="fill:#9333EA"></path><path d="M174.92,244.15v4.57a6.81,6.81,0,0,1-1.92,4.4c-15.82,14.55-35.24,26.2-59.24,34.15a6.65,6.65,0,0,1-2.68.21V215a11.24,11.24,0,0,1,2.77.11c22.59,4.25,42.18,12.66,59,24.92A5.78,5.78,0,0,1,174.92,244.15Z" style="opacity:0.4"></path><path d="M111.08,215v72.53a6.11,6.11,0,0,1-2.14-.57c-17.14-8.66-34.52-20.15-46.68-31.34a6.87,6.87,0,0,1-1.9-4.39v-4.59a7.59,7.59,0,0,1,1.75-4.54q16.27-17.45,46.66-26.72A10.6,10.6,0,0,1,111.08,215Z" style="opacity:0.5"></path><path d="M62.27,245.74c12.15,11.19,29.52,22.65,46.67,31.31a7.27,7.27,0,0,0,4.82.37c24-7.91,43.42-19.56,59.25-34.11a2.09,2.09,0,0,0-.19-3.34c-16.79-12.26-36.38-20.66-59-24.92a12.79,12.79,0,0,0-5.08.28Q78.38,224.6,62.11,242A2.65,2.65,0,0,0,62.27,245.74Z" style="fill:#9333EA"></path><path d="M62.27,245.74c12.15,11.19,29.52,22.65,46.67,31.31a7.27,7.27,0,0,0,4.82.37c24-7.91,43.42-19.56,59.25-34.11a2.09,2.09,0,0,0-.19-3.34c-16.79-12.26-36.38-20.66-59-24.92a12.79,12.79,0,0,0-5.08.28Q78.38,224.6,62.11,242A2.65,2.65,0,0,0,62.27,245.74Z" style="opacity:0.30000000000000004"></path><path d="M49.43,177.78Q73.81,146.43,113.14,141a8.65,8.65,0,0,1,4.71.9,4.85,4.85,0,0,1,2.12,3.83V165a3.06,3.06,0,0,1-2.59,2.94q-39.33,5.44-63.71,36.78a3,3,0,0,1-3.7.86,4.87,4.87,0,0,1-2.12-3.84V182.47A8.87,8.87,0,0,1,49.43,177.78Z" style="fill:#9333EA"></path><path d="M66.71,190.75,48.28,180.1a7.94,7.94,0,0,0-.43,2.37v19.27A4.87,4.87,0,0,0,50,205.58a3,3,0,0,0,3.7-.86A103.71,103.71,0,0,1,66.71,190.75Z" style="opacity:0.5"></path><path d="M66.71,190.75Q87.83,172,117.38,167.94A3.06,3.06,0,0,0,120,165V145.72a4.85,4.85,0,0,0-2.12-3.83,8.65,8.65,0,0,0-4.71-.9q-39.33,5.44-63.71,36.79a7.74,7.74,0,0,0-1.15,2.32Z" style="opacity:0.30000000000000004"></path><path d="M53.67,204.72q24.39-31.33,63.71-36.78A3.06,3.06,0,0,0,120,165V145.72a2.23,2.23,0,0,0-2.59-2.28q-39.33,5.44-63.71,36.79a8.84,8.84,0,0,0-1.58,4.69v19.27C52.09,205.63,52.79,205.86,53.67,204.72Z" style="fill:#9333EA"></path><path d="M53.67,204.72q24.39-31.33,63.71-36.78A3.06,3.06,0,0,0,120,165V145.72a2.23,2.23,0,0,0-2.59-2.28q-39.33,5.44-63.71,36.79a8.84,8.84,0,0,0-1.58,4.69v19.27C52.09,205.63,52.79,205.86,53.67,204.72Z" style="opacity:0.4"></path></g><g id="freepik--character--inject-76"><path d="M113,60l-.15.11C106,65.11,98,67,91.91,73.27A26,26,0,0,0,84.6,94.82c1.66,16.71,15.65,24.57,20.5,29.23.22.22,1.76,0,2.06,0l4.65,0c1.12,0,2.57.51,3.62.11,1.38-.53,2.34-2.45,3.11-3.61,6.29-9.42,17.28-14.32,24.11-23.34,2.35-3.11,4.63-6.44,5.4-10.26s-.33-8.27-3.58-10.42a8.41,8.41,0,0,0-9.4-12.68c1.21-3.17-.68-6.95-3.66-8.58s-6.68-1.42-9.86-.25A36.63,36.63,0,0,0,113,60Z" style="fill:#263238"></path><path d="M141.78,291.2c-5.41-.73-10.05,3.6-10.49,5-.6,1.88-.4,5.67,1.8,10.34a32.36,32.36,0,0,1,2.39,14.73c-.4,4.27-2.44,14.95,1.87,20.32s13.91,10,17.32,2.7c1.11-2.41-1.13-10.74-2.12-16.82-2-12.1-3.53-24.13-3.53-24.13Z" style="fill:#263238"></path><path d="M140.08,300.86a117.8,117.8,0,0,1,1.37,17.77c-.11,6.49,1.26,10.76,3.5,13.66,2.48,3.2,8.66,5,7.93-1.7-.51-4.66-3.86-27.27-3.86-27.27Z" style="fill:#ffa8a7"></path><path d="M133.09,294.05c-.26,4,1.9,14.62,7.31,23.52,5.3,8.72,13.07,19,14.55,25.21.15-2.86-1-8.09-1.94-12.76l-.06-.3-.15-.81c0-.12,0-.25-.07-.37-.06-.34-.12-.68-.17-1v-.07c-.63-3.78-1.2-7.56-1.7-11-.4-2.72-.75-5.21-1-7.27-.14-1-.26-2-.37-2.74-.05-.4-.1-.77-.15-1.09-.17-1.32-.27-2.07-.27-2.07l-7.24-12.12c-.36-.05-.71-.06-1.05-.08A11.88,11.88,0,0,0,133.09,294.05Z" style="opacity:0.15"></path><path d="M164.23,225.38c-16-13-34.13-24.95-34.13-24.95l-18.6,18.65L130,235.48,149.22,256s4.48-.36,1.76,6.64c-.87,2.22-2.17,6.66-3.55,11.7l11,30s6.37-10.58,15.63-29.19c7.36-14.77,10.5-24.21,9.7-28.1C182.68,241.9,176.94,235.74,164.23,225.38Z" style="fill:#37474f"></path><path d="M128.68,226.12s20.52,19,25,24.13,7.2,6.56,7.76,18.24c.47,9.86,1.88,27.09,1.88,27.09L131.9,256.81l-9.33-26.49Z" style="fill:#263238"></path><path d="M156.22,351.11c-1.32-.09-1.4,2.16-2.19,5a14.54,14.54,0,0,0-.4,8.55c1.08,3.61,6.78,4.33,9.6,9.12s6.84,13.38,16.93,16.23,18.11,0,20.23-2.92.59-5.92-5.7-10.1c-6.69-4.44-8.58-5.74-8.58-5.74Z" style="fill:#263238"></path><path d="M169.85,334.09s2.56,11.32,5.14,17.79,6.94,12.75,11.84,18.65c1.06,1.28,3.5,3.68,4.38,4.71a2,2,0,0,1-.27,3c-2.28,2.09-11.74,2.41-17-1.67s-9.88-12.64-13-15.9c-1.16-1.23-2.26-2.48-3.29-3.8a6.64,6.64,0,0,1-1.54-4.26,19.16,19.16,0,0,0-.27-6.11c-.66-3.34-1.36-4.64-2.34-7.9Z" style="fill:#ffa8a7"></path><path d="M80.34,195.78c-7.21,12.16-9.44,27.76-6.6,35.33,3.88,10.31,9.72,14.51,24,23.2,11.78,7.2,29.15,17.6,32.68,19.25s3.86,3.81,3.21,10.61,1.48,18,8.75,32c7.68,14.87,11.87,25,11.87,25a18.9,18.9,0,0,0,16.69-4.57s-12-67-14.83-75.91-35.68-38.37-35.68-38.37,4.89-14.62,7.74-24.81Z" style="fill:#37474f"></path><path d="M133,214.91s-2.6,7.78-8.73,11l2.41,2.22A19,19,0,0,0,133,214.91Z" style="fill:#263238"></path><path d="M197.56,156.81c2.29-2.72,3.82-5,6.65-7,5.85-4,8.24-7.13,8.76-9.13l-9.76-12.27-1.89-.26s1.57-3.32,1.19-5.36c-.44-2.39-1.44-3.66-3.2-1s-4.54,5.14-5.49,7.7a77.59,77.59,0,0,0-2.92,10.39c-.66,3.23-5.38,7.54-5.38,7.54Z" style="fill:#ffa8a7"></path><path d="M120,125.08c7.36-.93,13.21-.07,17.91,5.16s27.38,35.65,27.38,35.65L193,140.59l8.15,11.86s-22.82,27.74-27.43,31.76-8.4,6.61-16.46,0-32.73-32-32.73-32Z" style="fill:#ffa8a7"></path><path d="M210,141.33a8,8,0,0,1-3.13-.35c-1.39-.47-2.63-1.92-3.79-4.44-1-2.12-2.58-6.79-1.61-9.24,1.24-3.12,5-3.33,7.45-3.47l.85,0,.22,2.94c-.3,0-.76.13-1.08.15-1.39.07-4.45.63-4.77,1.43-1.1,1.95,2,9.21,3.35,10a11.54,11.54,0,0,0,4.79-.15l1,2.44A11.16,11.16,0,0,1,210,141.33Z" style="fill:#9333EA"></path><g style="opacity:0.2"><path d="M210,141.33a8,8,0,0,1-3.13-.35c-1.39-.47-2.63-1.92-3.79-4.44-1-2.12-2.58-6.79-1.61-9.24,1.24-3.12,5-3.33,7.45-3.47l.85,0,.22,2.94c-.3,0-.76.13-1.08.15-1.39.07-4.45.63-4.77,1.43-1.1,1.95,2,9.21,3.35,10a11.54,11.54,0,0,0,4.79-.15l1,2.44A11.16,11.16,0,0,1,210,141.33Z"></path></g><path d="M208.64,119.78c.2-1.23,1.31-2.49,3.37-3.56,4.75-2.49,12.7-3.07,17.76-1.3,2.19.77,3.47,1.85,3.85,3h.07c1.41,7.87.67,17.16-1.79,22.45,0,0,0,.08,0,.11a.59.59,0,0,0,0,.08h0a6.15,6.15,0,0,1-2.16,2.36,14.91,14.91,0,0,1-13.47,1,6.06,6.06,0,0,1-2.48-2h0l-.05-.07a.75.75,0,0,0-.07-.12c-3.19-4.87-5.27-14-5-21.95Z" style="fill:#9333EA"></path><g style="opacity:0.5"><path d="M212,116.22c-4.75,2.48-4.5,5.94.56,7.71s13,1.19,17.76-1.29,4.5-6-.56-7.72S216.76,113.73,212,116.22Z" style="fill:#fff"></path></g><g style="opacity:0.15"><path d="M213.82,117.43c-3.85,1.68-3.69,3.94.37,5a25.21,25.21,0,0,0,14.33-1c3.85-1.68,3.69-3.93-.37-5A25.21,25.21,0,0,0,213.82,117.43Z"></path></g><path d="M214.05,120.47a7.41,7.41,0,0,0-1.92,1.15,7.79,7.79,0,0,0,2.06.85,25.21,25.21,0,0,0,14.33-1,7.51,7.51,0,0,0,1.91-1.14,7.47,7.47,0,0,0-2.06-.85A25.17,25.17,0,0,0,214.05,120.47Z" style="fill:#37474f"></path><path d="M203.94,129c-.15.7.11,1.81-1,2.93-.65.65-1.28,1.39-2,2s-1.18.87-1.36,1.73a2.44,2.44,0,0,0,.53,2.09,3,3,0,0,1,.62.77,2.23,2.23,0,0,1,0,1,4,4,0,0,0,1.5,3.75,4.34,4.34,0,0,0,2,.61,9.11,9.11,0,0,0,5.43-1.15,4.2,4.2,0,0,0,1.45-1.73,6.48,6.48,0,0,0,.62-2.75,34.41,34.41,0,0,1-2.48-8.76s-.17-1.63-2.56-2.32a6.11,6.11,0,0,0-2.3.79A1.51,1.51,0,0,0,203.94,129Z" style="fill:#f28f8f"></path><path d="M78.77,193.58c1.54-4.47,3-8.06,3.59-11.16.63-3.26,0-5.21-2.57-11.95A53.75,53.75,0,0,1,77.25,145c.8-5.37,2.67-8,5.79-10.16s16.74-6.35,16.74-6.35,11.24-3,17.06-3.4,8.47.65,12.3,4.85,11.39,14.71,13.86,22.51c1.45,4.57,3.12,14.68-6.6,20.17-1.05,5.25-3.07,13.29-3.55,17.52s.41,9.45,1.16,12.71c-3.32,7.26-13.08,15.8-30.42,16.47-20.32.78-30.67-5.9-30.67-5.9A196.84,196.84,0,0,1,78.77,193.58Z" style="fill:#9333EA"></path><path d="M128.17,172.26s-4.93,5.77-14.39,4.47c-9.76-1.35-11.46-9.51-11.46-9.51s-.69,10.62,11,12.23A14.11,14.11,0,0,0,128.17,172.26Z" style="opacity:0.1"></path><path d="M130.6,73.42c3.37,1.74,7.86,9.73,8.42,27,.46,14.61-4.07,18.48-6.38,19.65s-9.3.51-13.8,0l-1,10.43s5.21,4.32,5,8.36-9.61,5.37-16.55-.18c-7.19-5.76-6.56-9.77-6.56-9.77l.93-19.37s-2,2.39-5.22.2c-4.3-2.94-5.13-8.18-2.67-11.43,1.74-2.31,6.51-2.73,9,.57,0,0,5.95-.86,15.12-6.57A30.52,30.52,0,0,0,130.6,73.42Z" style="fill:#ffa8a7"></path><path d="M102.08,104.07h0l-.43-7.67,4.9-.27.15,2.77A4.91,4.91,0,0,1,102.08,104.07Z" style="fill:#263238"></path><path d="M120.89,97.72a1.84,1.84,0,1,1-2-1.71A1.86,1.86,0,0,1,120.89,97.72Z" style="fill:#263238"></path><path d="M122.72,109.73l5.7,1.48a2.88,2.88,0,0,1-3.53,2.21A3.1,3.1,0,0,1,122.72,109.73Z" style="fill:#f28f8f"></path><path d="M136.84,91.18,133,88.82a2.18,2.18,0,0,1,3-.81A2.38,2.38,0,0,1,136.84,91.18Z" style="fill:#263238"></path><path d="M136.23,95.54a1.84,1.84,0,1,1-2-1.71A1.86,1.86,0,0,1,136.23,95.54Z" style="fill:#263238"></path><polygon points="125.98 95.05 126.89 106.08 132.6 103.96 125.98 95.05" style="fill:#f28f8f"></polygon><path d="M118.84,120.05c-5.52-.87-11.9-3.65-13.61-7.38a9.49,9.49,0,0,0,3.39,6c3,2.31,10,4.19,10,4.19Z" style="fill:#f28f8f"></path><path id="freepik--woman-arm--inject-76" d="M86,133.36C77.22,136.79,74.36,140,72.54,148s8.5,42.56,12.7,54.24c2.67,7.45,3.16,8.64,9.83,11,5.53,2,45.27,11.51,49.17,12.1s10.11-2.06,10.11-2.06c.72-1.1,1.38-2.13,2.08-3,0,0,9.62,1.86,15.13,1.75s15.94-6.38,6.89-11c-12.74-6.48-16-8.53-23.12-6.11-6.16,2.1-10.42,5-14.05,4.52-7.6-1.6-38-13.34-38-13.34l-8.34-35.4S94.44,138,86,133.36Z" style="fill:#ffa8a7"></path></g></g><g id="freepik--Table--inject-76"><g id="freepik--table--inject-76"><g id="freepik--table--inject-76"><path d="M270.87,356.38c-13.68-7.9-35.87-7.9-49.55,0-6.84,3.95-10.25,9.13-10.25,14.3,0,.54,0,3.83,0,4.45.11,5.1,3.52,10.17,10.25,14.06,13.68,7.9,35.87,7.9,49.55,0,6.77-3.91,10.18-9,10.25-14.13,0-.6,0-3.9,0-4.46C281.09,365.45,277.68,360.31,270.87,356.38Z" style="fill:#37474f"></path><path d="M221.32,385c-13.68-7.9-13.68-20.71,0-28.61s35.87-7.9,49.55,0,13.68,20.71,0,28.61S235,392.89,221.32,385Z" style="fill:#455a64"></path><path d="M251.74,366.48h0V255H240.43V366.48h0a2.64,2.64,0,0,0,1.61,2.6,8.88,8.88,0,0,0,8,0A2.67,2.67,0,0,0,251.74,366.48Z" style="fill:#37474f"></path><path d="M317.93,202.33c-39.73-22.94-104.13-22.94-143.86,0-19.86,11.47-29.78,26.5-29.77,41.53v2.92c0,15,9.91,30.06,29.77,41.53,39.73,22.93,104.13,22.93,143.86,0,19.86-11.47,29.78-26.5,29.77-41.53v-2.92C347.71,228.83,337.79,213.8,317.93,202.33Z" style="fill:#455a64"></path><path d="M318,194.71c-39.73-22.94-104.13-22.94-143.86,0-19.86,11.47-29.78,26.5-29.77,41.53v5c0,15,9.91,30.07,29.77,41.53,39.73,22.94,104.13,22.94,143.86,0,19.86-11.46,29.78-28.58,29.77-43.61v-2.92C347.8,221.21,337.88,206.18,318,194.71Z" style="fill:#9333EA"></path><path d="M318,194.71c-39.73-22.94-104.13-22.94-143.86,0-19.86,11.47-29.78,26.5-29.77,41.53v5c0,15,9.91,30.07,29.77,41.53,39.73,22.94,104.13,22.94,143.86,0,19.86-11.46,29.78-28.58,29.77-43.61v-2.92C347.8,221.21,337.88,206.18,318,194.71Z" style="fill:#fff;opacity:0.4"></path><path d="M318,194.71c-39.73-22.94-104.13-22.94-143.86,0-19.86,11.47-29.78,26.5-29.77,41.53v5c0,15,9.91,30.07,29.77,41.53,39.73,22.94,104.13,22.94,143.86,0,19.86-11.46,29.78-28.58,29.77-43.61v-2.92C347.8,221.21,337.88,206.18,318,194.71Z" style="opacity:0.1"></path><ellipse cx="246.09" cy="236.24" rx="101.72" ry="58.73" style="fill:#9333EA"></ellipse><ellipse cx="246" cy="236.24" rx="101.72" ry="58.73" style="fill:#fff;opacity:0.6000000000000001"></ellipse></g><g id="freepik--Plates--inject-76"><g id="freepik--Cake--inject-76"><path d="M227.87,202.12c10,5.78,10,15.15,0,20.92s-26.23,5.78-36.23,0-10-15.14,0-20.92S217.86,196.35,227.87,202.12Z" style="opacity:0.15"></path><g id="freepik--Slice--inject-76"><g id="freepik--Plate--inject-76"><path d="M227.3,200.66c-9.69-5.59-25.4-5.59-35.09,0h0v-1c-5.07,2.92-7.48,6.8-7.25,10.63-.23,3.83,2.18,7.71,7.25,10.63,9.69,5.6,25.4,5.6,35.09,0S237,206.26,227.3,200.66Z" style="fill:#e0e0e0"></path><path d="M227.3,199.66c9.69,5.59,9.69,14.66,0,20.26s-25.4,5.59-35.09,0-9.69-14.67,0-20.26S217.61,194.06,227.3,199.66Z" style="fill:#9333EA"></path><path d="M227.3,199.66c9.69,5.59,9.69,14.66,0,20.26s-25.4,5.59-35.09,0-9.69-14.67,0-20.26S217.61,194.06,227.3,199.66Z" style="fill:#fafafa"></path><path d="M197.86,203.83c-6.66,3.85-6.66,10.08,0,13.93s17.45,3.84,24.11,0,6.66-10.08,0-13.93S204.52,200,197.86,203.83Z" style="fill:#e0e0e0"></path><path d="M198.68,204.31c-6.21,3.58-6.21,9.39,0,13s16.26,3.58,22.47,0,6.21-9.39,0-13S204.88,200.72,198.68,204.31Z" style="fill:#ebebeb"></path></g><g id="freepik--slice--inject-76"><path id="freepik--shadow--inject-76" d="M194,215.43c0,.66.06,1.37.69,1.37l32.52-.11c1.35,0,1.55-.85.92-2.91s-4.15-8.36-9.56-9.54Z" style="opacity:0.15"></path><g id="freepik--slice--inject-76"><path d="M194,203.2v12.47a.72.72,0,0,0,.8.71l28.76-3.9a1.49,1.49,0,0,0,1.29-1.48V198.9a.72.72,0,0,0-.28-.57l-14.74-11a1.41,1.41,0,0,0-1.89.18l-13.62,14.88A1.22,1.22,0,0,0,194,203.2Z" style="fill:#263238"></path><path d="M216.43,189.79a36,36,0,0,0-6.52-2.9,1.74,1.74,0,0,0-1.83.48l-13.8,15.08a.13.13,0,0,0,.12.22l30-4.06c.51-.06.51.29.51.29h0a1.59,1.59,0,0,0-.14-.68C223.38,195.13,220.61,192.21,216.43,189.79Z" style="fill:#455a64"></path><g style="opacity:0.7000000000000001"><path d="M194.79,216.37l28.07-3.8v-3.49a1.17,1.17,0,0,0-1.36-1.19L194,211.6v4.1A.68.68,0,0,0,194.79,216.37Z" style="fill:#9333EA"></path><path d="M221.5,206a1.61,1.61,0,0,0,1.36-1.55V202.3a1.17,1.17,0,0,0-1.36-1.19L194,204.82v4.88Z" style="fill:#9333EA"></path></g></g><path d="M207.3,192.16a9.53,9.53,0,0,1,8.67,0c2.4,1.38,2.4,3.62,0,5a9.6,9.6,0,0,1-8.67,0C204.9,195.78,204.9,193.54,207.3,192.16Z" style="opacity:0.2"></path><path d="M213.13,188.53a9.72,9.72,0,0,1,3.26,1.9,3.48,3.48,0,0,1,.79,4,3.59,3.59,0,0,1-3.15,1.95,9.25,9.25,0,0,0-.07-3.86C213.47,190.61,213.13,188.53,213.13,188.53Z" style="fill:#9333EA"></path><path d="M213.13,188.53a9.72,9.72,0,0,1,3.26,1.9,3.48,3.48,0,0,1,.79,4,3.59,3.59,0,0,1-3.15,1.95,9.25,9.25,0,0,0-.07-3.86C213.47,190.61,213.13,188.53,213.13,188.53Z" style="opacity:0.2"></path><path d="M210.64,188.42c-.46.66-2.08,1-3.16,1.72a3.74,3.74,0,0,0-1.91,2.1,2.37,2.37,0,0,0,1.13,2.87c1.21.57,3.67-1.4,3.94-2.11A26.58,26.58,0,0,0,210.64,188.42Z" style="fill:#9a4a4d"></path><path d="M210.64,188.42c-.46.66-2.08,1-3.16,1.72a3.74,3.74,0,0,0-1.91,2.1,2.37,2.37,0,0,0,1.13,2.87c1.21.57,3.67-1.4,3.94-2.11A26.58,26.58,0,0,0,210.64,188.42Z" style="fill:#9333EA"></path><path d="M210.64,188.42c-.46.66-2.08,1-3.16,1.72a3.74,3.74,0,0,0-1.91,2.1,2.37,2.37,0,0,0,1.13,2.87c1.21.57,3.67-1.4,3.94-2.11A26.58,26.58,0,0,0,210.64,188.42Z" style="opacity:0.30000000000000004"></path><path d="M211.39,187.22a2.26,2.26,0,0,0-.81,2.06,3.68,3.68,0,0,1-2.16,3.69c-1.95,1-2.18,2.07-1.14,3a3.26,3.26,0,0,0,2.37.68s2.9-.66,3.48-2.83S212.6,188.18,211.39,187.22Z" style="fill:#9333EA"></path><path d="M211.39,187.22a2.26,2.26,0,0,0-.81,2.06,3.68,3.68,0,0,1-2.16,3.69c-1.95,1-2.18,2.07-1.14,3a3.26,3.26,0,0,0,2.37.68s2.9-.66,3.48-2.83S212.6,188.18,211.39,187.22Z" style="opacity:0.2"></path><path d="M211.64,197.26c-1.88,0-2.64-.81-1.77-1.89.43-.53,1.22-.75,1.71-1.29a3.41,3.41,0,0,0,1-2.05c.17-1.92-2.16-3.92-.8-5.6.15.92.53,1.44,1.88,2.54a5.33,5.33,0,0,1,1.66,5.94C214.86,196.26,212.85,197.26,211.64,197.26Z" style="fill:#9333EA"></path><path d="M211.64,197.26c-1.88,0-2.64-.81-1.77-1.89.43-.53,1.22-.75,1.71-1.29a3.41,3.41,0,0,0,1-2.05c.17-1.92-2.16-3.92-.8-5.6.15.92.53,1.44,1.88,2.54a5.33,5.33,0,0,1,1.66,5.94C214.86,196.26,212.85,197.26,211.64,197.26Z" style="opacity:0.1"></path><path d="M215.54,195.33a4.38,4.38,0,0,0,.1-2.14,3.58,3.58,0,0,1-2.86,2.78,5.31,5.31,0,0,1-1.91.21c-.74-.07-1.16-.35-1.13-.63a.64.64,0,0,1,.1-.13l.12-.15.07-.06a.12.12,0,0,1,.05-.05l.17-.13.07-.06,0,0,.34-.22c.23-.14.43-.26.56-.36l.08-.07.14-.12,0,0,.12-.13a1.68,1.68,0,0,0,.18-.21l.09-.11,0,0,.14-.19a2.39,2.39,0,0,0,.13-.21,3.17,3.17,0,0,0,.26-.57c0-.05,0-.1,0-.12v0a3.93,3.93,0,0,1-2.17,1.9,4.43,4.43,0,0,1-2.56.28c-.8-.12-.83-.56-.83-.61l0,0a4.19,4.19,0,0,1,1.46-1.13,5.3,5.3,0,0,0,.89-.6,4.51,4.51,0,0,1-1.07.5,4.9,4.9,0,0,1-1.89.19c-.71-.15-.82-.49-.71-1l-.06.17a2.37,2.37,0,0,0,1.13,2.87h0a1.69,1.69,0,0,0,.58.84,3.26,3.26,0,0,0,2.37.68h0a2.45,2.45,0,0,0,2,.63,4.7,4.7,0,0,0,2.39-.84h0a3.59,3.59,0,0,0,3.15-1.95,3.16,3.16,0,0,0,.33-1.7h0A2.74,2.74,0,0,1,215.54,195.33Z" style="opacity:0.2"></path></g></g></g><g id="freepik--plate--inject-76"><path d="M317.07,226.26c10,5.78,10,15.14,0,20.92s-26.23,5.78-36.23,0-10-15.14,0-20.92S307.07,220.49,317.07,226.26Z" style="opacity:0.15"></path><g id="freepik--plate--inject-76"><path d="M316.5,224.7c-9.69-5.59-25.4-5.59-35.09,0h0v-1c-5.07,2.92-7.48,6.8-7.25,10.63-.23,3.83,2.18,7.71,7.25,10.63,9.69,5.6,25.4,5.6,35.09,0S326.19,230.3,316.5,224.7Z" style="fill:#9333EA"></path><path d="M316.5,224.7c-9.69-5.59-25.4-5.59-35.09,0h0v-1c-5.07,2.92-7.48,6.8-7.25,10.63-.23,3.83,2.18,7.71,7.25,10.63,9.69,5.6,25.4,5.6,35.09,0S326.19,230.3,316.5,224.7Z" style="opacity:0.4"></path><path d="M316.5,223.7c9.69,5.59,9.69,14.66,0,20.26s-25.4,5.59-35.09,0-9.69-14.67,0-20.26S306.81,218.1,316.5,223.7Z" style="fill:#9333EA"></path><path d="M316.5,223.7c9.69,5.59,9.69,14.66,0,20.26s-25.4,5.59-35.09,0-9.69-14.67,0-20.26S306.81,218.1,316.5,223.7Z" style="fill:#9333EA"></path><path d="M316.5,223.7c9.69,5.59,9.69,14.66,0,20.26s-25.4,5.59-35.09,0-9.69-14.67,0-20.26S306.81,218.1,316.5,223.7Z" style="opacity:0.2"></path><path d="M287.06,227.87c-6.66,3.85-6.66,10.08,0,13.92s17.46,3.85,24.12,0,6.66-10.07,0-13.92S293.71,224,287.06,227.87Z" style="opacity:0.30000000000000004"></path><path d="M287.88,228.35c-6.21,3.58-6.21,9.39,0,13s16.26,3.58,22.47,0,6.21-9.39,0-13S294.08,224.76,287.88,228.35Z" style="fill:#9333EA"></path><path d="M287.88,228.35c-6.21,3.58-6.21,9.39,0,13s16.26,3.58,22.47,0,6.21-9.39,0-13S294.08,224.76,287.88,228.35Z" style="opacity:0.2"></path></g></g><g id="freepik--Spoon--inject-76"><path d="M201,234.76l-24.35-8.51-.55-.42.14.52a1.19,1.19,0,0,0,.76.81l24.13,8.42Z" style="fill:#263238"></path><path d="M201,234.56c0,1.12,0,3.34,3.52,4.9s7.47-.2,7.46-2.53Z" style="fill:#37474f"></path><path d="M203.41,237.5c2.51,1.43,5.92,1.79,7.61.8s1.07-3.19-1.41-4.69-6-1.75-7.69-.76a2,2,0,0,0-.94,1.7C201,235.5,201.83,236.6,203.41,237.5Z" style="fill:#455a64"></path><path d="M176.1,225.12h0a1.23,1.23,0,0,1,1.46-.55l25,8.75c.76.27,1,.8.55,1.2h0a2.52,2.52,0,0,1-2.2.23l-24.45-8.54A.76.76,0,0,1,176.1,225.12Z" style="fill:#455a64"></path><path d="M211.33,235.1a6.12,6.12,0,0,0-1.72-1.49c-2.42-1.46-6-1.75-7.69-.76l-.22.16-24.14-8.44a1.23,1.23,0,0,0-1.46.55.8.8,0,0,0-.1.45c.29-1,1.07-.63,2.25-.25s23.66,8.23,23.66,8.23a6.12,6.12,0,0,1,4.41-.61A11.31,11.31,0,0,1,211.33,235.1Z" style="fill:#fff;opacity:0.1"></path><path d="M211.11,236.22a2.2,2.2,0,0,0-.77-1.08c.1,1.35-1.55,1.93-3.71,1.7-2.49-.26-4.85-1.81-4.72-3.09a1.65,1.65,0,0,0-.24.5c-.44,1.77,3.17,4.09,6,4.21S211.45,237.45,211.11,236.22Z" style="opacity:0.1"></path></g><g id="freepik--spoon--inject-76"><path d="M278,217.88l24.34-8.5.56-.42-.14.51a1.22,1.22,0,0,1-.76.82l-24.13,8.41Z" style="fill:#263238"></path><path d="M278,217.69c0,1.11,0,3.33-3.53,4.89s-7.47-.19-7.45-2.53Z" style="fill:#37474f"></path><path d="M275.53,220.62c-2.52,1.44-5.93,1.8-7.62.81s-1.07-3.2,1.42-4.7,6-1.75,7.68-.76a2.06,2.06,0,0,1,.95,1.7C278,218.62,277.1,219.73,275.53,220.62Z" style="fill:#455a64"></path><path d="M302.84,208.24h0a1.22,1.22,0,0,0-1.47-.54l-25,8.75c-.76.26-1,.8-.55,1.19h0a2.51,2.51,0,0,0,2.21.23l24.44-8.54A.76.76,0,0,0,302.84,208.24Z" style="fill:#455a64"></path><path d="M267.61,218.22a6.14,6.14,0,0,1,1.72-1.49c2.42-1.46,6-1.75,7.68-.76a1.88,1.88,0,0,1,.23.16l24.13-8.43a1.22,1.22,0,0,1,1.47.54.75.75,0,0,1,.09.46c-.28-1-1.07-.64-2.25-.25S277,216.68,277,216.68a6,6,0,0,0-4.4-.61A11.26,11.26,0,0,0,267.61,218.22Z" style="fill:#fff;opacity:0.1"></path><path d="M267.82,219.35a2.22,2.22,0,0,1,.78-1.08c-.11,1.34,1.54,1.92,3.71,1.7,2.49-.26,4.84-1.82,4.71-3.09a1.49,1.49,0,0,1,.24.49c.44,1.77-3.16,4.1-6,4.22S267.48,220.58,267.82,219.35Z" style="opacity:0.1"></path></g><g id="freepik--Pot--inject-76"><g style="opacity:0.15"><path d="M230.76,267.85c-5.34,3.08-5.34,8.08,0,11.17s14,3.08,19.34,0,5.34-8.09,0-11.17S236.1,264.76,230.76,267.85Z"></path></g><path d="M249.25,274.23c4.72-4.82,7.49-16.84,2.89-20.65H228.73c-4.6,3.81-1.83,15.83,2.88,20.64l.13.13c0,.06.11.11.16.16a5.3,5.3,0,0,0,.43.38l.11.09.36.27a5.7,5.7,0,0,0,.61.39,15.53,15.53,0,0,0,14.05,0h0c.2-.12.41-.25.61-.39s.22-.17.33-.25l.14-.11a3.7,3.7,0,0,0,.41-.37l.19-.18Z" style="fill:#ebebeb"></path><path d="M230.76,252c-5.34,3.08-5.34,8.08,0,11.17s14,3.08,19.34,0,5.34-8.09,0-11.17S236.1,249,230.76,252Z" style="fill:#fafafa"></path><path d="M234.55,254.23c-3.25,1.87-3.25,4.91,0,6.79a13,13,0,0,0,11.77,0c3.25-1.88,3.25-4.92,0-6.79A13,13,0,0,0,234.55,254.23Z" style="fill:#ebebeb"></path><path d="M246.32,257.45a13,13,0,0,0-11.77,0,5.27,5.27,0,0,0-2,1.79,5.33,5.33,0,0,0,2,1.78,13,13,0,0,0,11.77,0,5.37,5.37,0,0,0,1.94-1.78A5.31,5.31,0,0,0,246.32,257.45Z" style="fill:#e0e0e0"></path><path d="M234.7,259.13a29,29,0,0,1-4.67-6.2c-2.16-3.82-2.55-8.92-1.44-9.55s5.65,4.46,5.65,4.46a27.52,27.52,0,0,1-.48-6.5c.19-3.4,1-6.48,2-7.1s3.15,3.66,4.08,6.76,1.49,5.65,1.49,5.65a48.74,48.74,0,0,1,1.67-7.14c1.13-3.22,2.16-3.95,3-3.63s1.32,1.82,1.55,6.11a43.09,43.09,0,0,1-.19,6.14s1.6-1.75,3.37-3.46c1.95-1.87,2.79-2.13,3.34-1.77s.71,3.27-2.31,8.73a30.41,30.41,0,0,1-5.69,7.5S241.84,261.83,234.7,259.13Z" style="fill:#9333EA"></path><g style="opacity:0.25"><path d="M234.7,259.13a29,29,0,0,1-4.67-6.2c-2.16-3.82-2.55-8.92-1.44-9.55s5.65,4.46,5.65,4.46a27.52,27.52,0,0,1-.48-6.5c.19-3.4,1-6.48,2-7.1s3.15,3.66,4.08,6.76,1.49,5.65,1.49,5.65a48.74,48.74,0,0,1,1.67-7.14c1.13-3.22,2.16-3.95,3-3.63s1.32,1.82,1.55,6.11a43.09,43.09,0,0,1-.19,6.14s1.6-1.75,3.37-3.46c1.95-1.87,2.79-2.13,3.34-1.77s.71,3.27-2.31,8.73a30.41,30.41,0,0,1-5.69,7.5S241.84,261.83,234.7,259.13Z"></path></g><path d="M237.45,251.51s-3-8-3.21-13.84a23.17,23.17,0,0,0-.48,3.67,27.52,27.52,0,0,0,.48,6.5S235.91,250.66,237.45,251.51Z" style="opacity:0.1"></path><path d="M242.22,260.25a15.63,15.63,0,0,1-6.39-2.63c-3-2.23-7.39-9.3-7.84-12.13a16.31,16.31,0,0,0,2,7.44,29,29,0,0,0,4.67,6.2A16.31,16.31,0,0,0,242.22,260.25Z" style="opacity:0.1"></path></g></g></g></g></svg>